<?xml version="1.0" encoding="UTF-8" standalone="no"?><svg xmlns="http://www.w3.org/2000/svg" xmlns:xlink="http://www.w3.org/1999/xlink" contentScriptType="text/ecmascript" fill="#000000" width="420" zoomAndPan="magnify" contentStyleType="text/css" viewBox="0.0 0.0 420.1 250.0" height="250" preserveAspectRatio="xMidYMid meet" version="1"><g><g><g><g id="change1_1"><path fill="#0f61a5" d="M345.47,159.15H74.66c-38.55,0-69.79-31.25-69.79-69.79h0c0-38.55,31.25-69.79,69.79-69.79h270.81c38.55,0,69.79,31.25,69.79,69.79h0c0,38.54-31.24,69.79-69.79,69.79Z"/></g><g id="change2_1"><path d="M345.47,164H74.66C33.49,164,0,130.51,0,89.34S33.49,14.68,74.66,14.68h270.81c41.16,0,74.66,33.49,74.66,74.66s-33.5,74.66-74.66,74.66ZM74.66,24.4c-35.81,0-64.94,29.13-64.94,64.94s29.13,64.94,64.94,64.94h270.81c35.81,0,64.94-29.13,64.94-64.94s-29.13-64.94-64.94-64.94c0,0-270.81,0-270.81,0Z"/></g><g id="change3_1"><path fill="#0075ff" d="M340.91,137.71H79.22c-38.03,0-68.86-30.83-68.86-68.86h0C10.36,30.83,41.19,0,79.22,0h261.69c38.03,0,68.86,30.83,68.86,68.86h0c0,38.02-30.83,68.85-68.86,68.85h0Z"/></g><g fill="#ffffff" id="change4_2"><path d="M126.5,95.84c-7.14,0-13.14-1.95-17.99-5.86-1.5-1.2-2.25-2.59-2.25-4.16,0-1.39.55-2.63,1.65-3.73,1.1-1.1,2.51-1.65,4.25-1.65,1.41,0,2.68.44,3.81,1.32,2.8,2.2,6.31,3.29,10.54,3.29,1.66,0,3.27-.38,4.82-1.14,1.5-.72,2.25-1.83,2.25-3.33,0-.85-.36-1.59-1.08-2.2s-1.75-1.2-3.1-1.77-2.88-1.14-4.59-1.72c-1.87-.65-3.79-1.38-5.74-2.18-1.95-.81-3.79-1.8-5.49-2.98-1.71-1.18-3.09-2.62-4.14-4.32s-1.58-3.73-1.58-6.08c0-4.92,1.95-8.81,5.86-11.65,3.35-2.43,7.6-3.64,12.76-3.64,2.68,0,5.44.39,8.27,1.16s5.3,1.92,7.4,3.45c1.66,1.23,2.5,2.67,2.5,4.33,0,1.39-.55,2.63-1.65,3.73-1.1,1.1-2.5,1.65-4.21,1.65-1.32,0-2.52-.37-3.61-1.11-1.18-.81-2.57-1.42-4.18-1.82-1.61-.4-3.11-.61-4.52-.61-1.73,0-3.26.29-4.58.87-1.25.58-1.87,1.61-1.87,3.09,0,.69.32,1.3.95,1.82.64.52,1.58,1.04,2.84,1.56,1.26.52,2.7,1.06,4.32,1.61,1.92.65,3.89,1.39,5.91,2.24s3.92,1.88,5.7,3.12,3.22,2.74,4.33,4.52,1.66,3.92,1.66,6.41-.54,4.76-1.61,6.73c-1.07,1.96-2.54,3.62-4.38,4.97-1.85,1.35-3.92,2.37-6.22,3.05s-4.64,1.02-7.02,1.02h-.01Z"/><path d="M169.38,95.81c-1.69,0-3.16-.49-4.42-1.47s-1.89-2.26-1.89-3.83v-35.19h-5.76c-1.73,0-3.17-.53-4.3-1.59s-1.7-2.33-1.7-3.81.57-2.74,1.7-3.8,2.57-1.58,4.3-1.58h24.13c1.73,0,3.17.53,4.3,1.58s1.7,2.32,1.7,3.8-.57,2.75-1.7,3.81c-1.13,1.06-2.56,1.59-4.3,1.59h-5.75v35.19c0,1.57-.64,2.85-1.91,3.83s-2.74,1.47-4.4,1.47h0Z"/><path d="M198.85,84.92l-2.95,7.35c-.42,1.02-1.12,1.86-2.1,2.53s-2.12,1.01-3.41,1.01c-1.71,0-3.12-.55-4.21-1.65s-1.65-2.35-1.65-3.76c0-.62.12-1.24.35-1.84l16.4-41.01c.42-1.04,1.11-1.89,2.1-2.55.98-.66,2.12-.99,3.42-.99s2.43.33,3.41.99c.98.66,1.68,1.51,2.1,2.55l16.4,41.01c.23.6.35,1.23.35,1.87,0,1.53-.62,2.8-1.87,3.83s-2.72,1.54-4.4,1.54c-3.01,0-4.97-1.16-5.89-3.47l-2.98-7.42h-15.07ZM209.67,74.32l-3.29-8.18-3.29,8.18h6.59-.01Z"/><path d="M266.87,95.81c-2.1,0-3.76-.79-4.96-2.36l-11.82-15.53h-.69v12.58c0,1.57-.63,2.85-1.89,3.83s-2.72,1.47-4.38,1.47-3.16-.49-4.42-1.47-1.89-2.26-1.89-3.83v-40.6c0-1.39.55-2.63,1.65-3.73s2.5-1.65,4.21-1.65h11.16c5.52,0,10.01,1.29,13.45,3.88,3.97,2.98,5.96,7.12,5.96,12.41,0,2.66-.48,4.98-1.46,6.95-.97,1.98-2.3,3.63-3.99,4.98-1.69,1.34-3.17,2.25-4.44,2.74l8.67,11.58c.81,1.06,1.21,2.14,1.21,3.22,0,1.57-.62,2.88-1.87,3.94s-2.75,1.58-4.51,1.58h0ZM249.4,67.14c3.03,0,5.47-.28,7.32-.83,2.63-.81,3.95-2.63,3.95-5.48,0-1.57-.34-2.73-1.02-3.48s-1.57-1.28-2.67-1.59-2.29-.47-3.59-.47h-3.99v11.86h0Z"/><path d="M295.82,95.81c-1.69,0-3.16-.49-4.42-1.47s-1.89-2.26-1.89-3.83v-35.19h-5.76c-1.73,0-3.17-.53-4.3-1.59-1.13-1.06-1.7-2.33-1.7-3.81s.56-2.74,1.7-3.8,2.57-1.58,4.3-1.58h24.13c1.73,0,3.17.53,4.3,1.58s1.7,2.32,1.7,3.8-.57,2.75-1.7,3.81-2.56,1.59-4.3,1.59h-5.75v35.19c0,1.57-.64,2.85-1.91,3.83s-2.74,1.47-4.4,1.47h0Z"/></g><g><g id="change4_1"><path fill="#ffffff" d="M354.89,170.98v33.4h-.04v.98c0,19.01-15.19,34.46-33.85,34.46-10.57,0-18.99-4.03-25.29-12.12l-.28-.32c-.1-.11-.12-.15-.17-.19l-25.02-34.68s-.06-.07-.07-.11l-.19-.28c-1.27-1.58-3.45-4.89-3.29-6.91.33-3.89,2.59-5.6,6.48-5.81,2.57-.12,6.32,1.64,7.89,3.69l.37.48.07.04,6.36,8.08c.65.81,1.73,1.13,2.72.78h0c.99-.34,1.64-1.28,1.64-2.33v-63.48c.17-4.17,2.35-7.47,6.61-7.47s7.72,3.29,7.89,7.5v41.6c0,1.09.73,2.12,1.82,2.3,1.38.23,2.59-.83,2.59-2.16v-14.51c1.09-.5,2.27-.78,3.5-.78,3.39,0,6.48,2.13,7.68,5.28.06.17.15.33.23.48v13.56c0,1.1.76,2.11,1.83,2.28,1.38.22,2.56-.84,2.56-2.17v-13.56c1.14-.58,2.42-.89,3.73-.89,3.34,0,6.34,2,7.58,5.08.06.12.11.23.19.34v12.56c0,1.1.76,2.11,1.83,2.28,1.38.22,2.56-.84,2.56-2.17v-12.47c1.17-.62,2.48-.95,3.83-.95,4.17,0,7.68,3.12,8.15,7.28.04.29.07.61.07.92l.04-.03-.02.02Z"/></g><g id="change5_1"><path fill="#0f0e0d" d="M360.8,174.76v-3.8c0-.56-.03-1.13-.08-1.6-.81-7.14-6.85-12.54-14.05-12.54-1.65,0-3.26.28-4.78.81-2.67-3.47-6.8-5.5-11.22-5.5-1.64,0-3.21.26-4.68.78-2.67-3.61-6.85-5.74-11.38-5.74-.67,0-1.33.04-1.97.14v-20.95c-.3-7.38-6.36-13.16-13.8-13.16s-12.28,5.45-12.54,13.28v53.58l-.44-.56c-.11-.15-.23-.28-.36-.39-2.78-3.4-8.28-5.89-12.62-5.67-6.92.36-11.67,4.68-12.39,11.27l-.03.29c-.07.59-.11.98-.11,2.34.03.89.06,1.06.1,1.42l.06.41c.41,3.48,2.7,8.04,4.68,10.61l25.38,35.22.08.11c.06.07.11.14.21.25l.22.25c7.45,9.54,17.52,14.38,29.93,14.38,21.94,0,39.79-18.11,39.79-40.34l.03-34.45v-.43l-.03-.03v.02ZM353.78,205.36c0,18.4-14.7,33.37-32.77,33.37-10.31,0-18.3-3.83-24.47-11.74l-25.38-35.11-.32-.47c-2.89-3.59-3.41-5.28-3.34-6.07.28-3.11,2.15-4.71,5.74-4.89h.22c2.22,0,5.44,1.54,6.77,3.28l6.81,8.6c1.16,1.47,3.34,1.82,4.94.58.91-.7,1.35-1.86,1.35-3v-63.24c.06-1.51.63-6.43,5.52-6.43,3.67,0,6.66,2.83,6.8,6.41v41.6c0,1.65,1.17,3.1,2.71,3.37.96.17,1.94-.1,2.68-.73.74-.62,1.17-1.54,1.17-2.52v-13.78c3.69-1.31,7.75.69,9.06,4.09.06.15.11.3.19.44v13.27c0,1.67,1.18,3.1,2.75,3.34.96.15,1.94-.11,2.67-.74s1.16-1.54,1.16-2.5v-12.87c.84-.33,1.75-.51,2.64-.51,2.92,0,5.49,1.73,6.58,4.4.03.08.07.17.11.23v12.28c0,1.67,1.18,3.1,2.75,3.34.96.15,1.94-.11,2.67-.74.73-.62,1.16-1.54,1.16-2.5v-11.78c.87-.36,1.78-.55,2.74-.55,3.62,0,6.66,2.71,7.07,6.34.03.25.06.51.06.78v33l-.08.11.06,1.27v.04l-.02.03Z"/></g></g></g></g></g></svg>